# xmcd
#
# Track frame offsets:
#	150
#	14426
#	29854
#	44458
#	54133
#	68839
#	86296
#	102701
#	117743
#	129871
#	144121
#	162590
#	173697
#	194187
#
# Disc length: 2772
#
# Revision: 1
# Processed by: cddbd v1.5.1PL0 Copyright (c) Steve Scherf et al.
# Submitted via: dBpowerAMP V4.0
# Normalized: r0:TDELIM( - )
#
DISCID=c80ad20e
DTITLE=Various Artist - A Country Superstar Christmas II
DYEAR=1998
DGENRE=Country
TTITLE0=Geoge Strait - When It's Christmas Time In Texas
TTITLE1=Steve Wariner - On Christmas Morning
TTITLE2=Brooks and Dunn - Cabin In The Valley
TTITLE3=Clint Black - Slow As Christmas
TTITLE4=Joe Diffie - Wrap Me In Your Love
TTITLE5=Shania Twain - God Bless The Child
TTITLE6=Sammy Kershaw - Christmas Won't Be Christmas Without You
TTITLE7=Collin Raye - Little Drummer Boy
TTITLE8=Suzy Bogguss - Two Steppin' Around The Christmas Tree
TTITLE9=Rhett Akins - No Room
TTITLE10=Lee Ann Womack - Nothing But A Child
TTITLE11=Amy Grant - It's The Most Wonderful Time Of The Year
TTITLE12=Vince Gill - I'll Be Home For Christmas
TTITLE13=Jason McCoy - Dear Santa
EXTD=
EXTT0=
EXTT1=
EXTT2=
EXTT3=
EXTT4=
EXTT5=
EXTT6=
EXTT7=
EXTT8=
EXTT9=
EXTT10=
EXTT11=
EXTT12=
EXTT13=
PLAYORDER=
